<svg width="124" height="24" viewBox="0 0 124 24" fill="none" xmlns="http://www.w3.org/2000/svg">
<path d="M0.623956 7.21805C0.623956 7.21805 -0.428847 8.45113 0.950688 10.0451C0.950688 10.0451 1.16851 9.23308 3.34672 9.23308H5.96058C8.42922 9.23308 10.2807 7.2782 9.11899 5.26316C9.11899 5.26316 10.8616 5.41353 11.4424 4.51128C12.0233 3.60902 11.4061 3.24812 10.5348 3.24812H6.1421C6.1421 3.89474 4.65365 3.98496 4.65365 3.24812H2.18501C2.18501 3.24812 0.333528 3.24812 0.297224 4.54135C0.297224 4.54135 0.714715 4.33083 1.13221 4.30075V4.64662C1.13221 4.64662 0.623956 4.7218 0.387983 4.82707C0.15201 4.93233 -0.192874 5.21805 0.133858 5.95489C0.46059 6.69173 0.587653 6.94737 0.587653 6.94737C0.587653 6.94737 1.11405 6.57143 1.96719 6.57143H2.96554C4.74441 6.57143 4.41768 8 2.6388 8C0.85993 8 0.623956 7.21805 0.623956 7.21805Z" fill="#2E7D32"/>
<path d="M9.89952 5.72932C9.89952 5.72932 10.4985 5.7594 10.9342 5.44361C10.9342 5.44361 14.8731 7.98496 9.02823 13.0977C3.18336 18.2105 7.70315 21.5188 7.70315 21.5188C7.70315 21.5188 6.65035 22.3609 7.24936 24C7.24936 24 4.81847 22.862 2.95973 20.9323C0.271813 18.142 -1.36983 13.8713 6.00923 10.4662C6.00923 10.4662 10.8797 8.43609 9.89952 5.72932Z" fill="#2E7D32"/>
<path d="M3.87966 2.76692C3.87966 2.76692 4.666 1.60421 6.49352 1.60421C7.93332 1.60421 8.26005 0.992481 8.26005 0.992481C8.26005 0.992481 8.88955 0 12.0596 0C14.9653 0 16.9243 0.801805 18.51 1.87489C18.51 1.87489 14.2385 -0.320602 10.0273 2.76692H3.87966Z" fill="#2E7D32"/>
<path d="M21.6437 10.1251C21.5225 6.49624 18.1346 2.60632 10.8492 2.82707C17.9647 -2.16541 30.3079 8.98226 20.1429 14.8373C20.1429 14.8373 21.8426 12.8289 21.6437 10.1257V10.1251Z" fill="#2E7D32"/>
<path d="M11.9391 3.22827C20.8211 3.00752 23.9918 11.8298 18.2559 15.7997L12.496 18.1053C12.496 18.1053 11.7459 16.1005 14.529 13.7546C17.312 11.4087 19.9984 7.01775 12.3021 4.13053C12.3021 4.13053 12.4473 3.52902 11.9391 3.22827Z" fill="#2E7D32"/>
<path d="M11.4787 5.21323C11.4787 5.21323 11.9144 4.87218 12.0596 4.59188C18.6668 6.87759 17.6264 10.7471 13.6809 13.9952C11.2609 16.0601 12.0109 18.2857 12.0109 18.2857C12.0109 18.2857 9.05799 19.8093 8.04149 21.1326C8.04149 21.1326 3.76856 18.1179 9.6875 13.1128C15.4961 8.2003 11.4787 5.21323 11.4787 5.21323Z" fill="#2E7D32"/>
<path d="M30.0568 16V7.27273H31.1136V15.0625H35.1705V16H30.0568ZM36.6705 16V9.45455H37.6761V16H36.6705ZM37.1818 8.36364C36.9858 8.36364 36.8168 8.29688 36.6747 8.16335C36.5355 8.02983 36.4659 7.86932 36.4659 7.68182C36.4659 7.49432 36.5355 7.33381 36.6747 7.20028C36.8168 7.06676 36.9858 7 37.1818 7C37.3778 7 37.5455 7.06676 37.6847 7.20028C37.8267 7.33381 37.8977 7.49432 37.8977 7.68182C37.8977 7.86932 37.8267 8.02983 37.6847 8.16335C37.5455 8.29688 37.3778 8.36364 37.1818 8.36364ZM40.4556 13.6136L40.4386 12.3693H40.6431L43.5067 9.45455H44.7511L41.6999 12.5398H41.6147L40.4556 13.6136ZM39.5181 16V7.27273H40.5238V16H39.5181ZM43.6772 16L41.1204 12.7614L41.8363 12.0625L44.9556 16H43.6772ZM48.5202 16.1364C47.8896 16.1364 47.3455 15.9972 46.8881 15.7188C46.4336 15.4375 46.0827 15.0455 45.8356 14.5426C45.5913 14.0369 45.4691 13.4489 45.4691 12.7784C45.4691 12.108 45.5913 11.517 45.8356 11.0057C46.0827 10.4915 46.4265 10.0909 46.8668 9.80398C47.31 9.5142 47.8271 9.36932 48.418 9.36932C48.7589 9.36932 49.0955 9.42614 49.4279 9.53977C49.7603 9.65341 50.0629 9.83807 50.3356 10.0938C50.6083 10.3466 50.8256 10.6818 50.9876 11.0994C51.1495 11.517 51.2305 12.0312 51.2305 12.642V13.0682H46.185V12.1989H50.2077C50.2077 11.8295 50.1339 11.5 49.9862 11.2102C49.8413 10.9205 49.6339 10.6918 49.364 10.5241C49.0969 10.3565 48.7816 10.2727 48.418 10.2727C48.0174 10.2727 47.6708 10.3722 47.3782 10.571C47.0884 10.767 46.8654 11.0227 46.7092 11.3381C46.5529 11.6534 46.4748 11.9915 46.4748 12.3523V12.9318C46.4748 13.4261 46.56 13.8452 46.7305 14.1889C46.9038 14.5298 47.1438 14.7898 47.4506 14.9688C47.7575 15.1449 48.114 15.233 48.5202 15.233C48.7844 15.233 49.0231 15.196 49.2362 15.1222C49.4521 15.0455 49.6381 14.9318 49.7944 14.7812C49.9506 14.6278 50.0714 14.4375 50.1566 14.2102L51.1282 14.483C51.0259 14.8125 50.854 15.1023 50.6126 15.3523C50.3711 15.5994 50.0728 15.7926 49.7177 15.9318C49.3626 16.0682 48.9634 16.1364 48.5202 16.1364ZM53.766 7.27273V16H52.7603V7.27273H53.766ZM56.2557 18.4545C56.0852 18.4545 55.9332 18.4403 55.7997 18.4119C55.6662 18.3864 55.5739 18.3608 55.5227 18.3352L55.7784 17.4489C56.0227 17.5114 56.2386 17.5341 56.4261 17.517C56.6136 17.5 56.7798 17.4162 56.9247 17.2656C57.0724 17.1179 57.2074 16.8778 57.3295 16.5455L57.517 16.0341L55.0966 9.45455H56.1875L57.9943 14.6705H58.0625L59.8693 9.45455H60.9602L58.1818 16.9545C58.0568 17.2926 57.902 17.5724 57.7173 17.794C57.5327 18.0185 57.3182 18.1847 57.0739 18.2926C56.8324 18.4006 56.5597 18.4545 56.2557 18.4545ZM66.157 16H65.049L68.2536 7.27273H69.3445L72.549 16H71.4411L68.8331 8.65341H68.7649L66.157 16ZM66.5661 12.5909H71.032V13.5284H66.5661V12.5909ZM76.4311 16.1364C75.8175 16.1364 75.2891 15.9915 74.8459 15.7017C74.4027 15.4119 74.0618 15.0128 73.8232 14.5043C73.5845 13.9957 73.4652 13.4148 73.4652 12.7614C73.4652 12.0966 73.5874 11.5099 73.8317 11.0014C74.0788 10.4901 74.4226 10.0909 74.8629 9.80398C75.3061 9.5142 75.8232 9.36932 76.4141 9.36932C76.8743 9.36932 77.2891 9.45455 77.6584 9.625C78.0277 9.79545 78.3303 10.0341 78.5661 10.3409C78.8018 10.6477 78.9482 11.0057 79.005 11.4148H77.9993C77.9226 11.1165 77.7521 10.8523 77.4879 10.6222C77.2266 10.3892 76.8743 10.2727 76.4311 10.2727C76.0391 10.2727 75.6953 10.375 75.3999 10.5795C75.1072 10.7812 74.8786 11.0668 74.7138 11.4361C74.5518 11.8026 74.4709 12.233 74.4709 12.7273C74.4709 13.233 74.5504 13.6733 74.7095 14.0483C74.8714 14.4233 75.0987 14.7145 75.3913 14.9219C75.6868 15.1293 76.0334 15.233 76.4311 15.233C76.6925 15.233 76.9297 15.1875 77.1428 15.0966C77.3558 15.0057 77.5362 14.875 77.6839 14.7045C77.8317 14.5341 77.9368 14.3295 77.9993 14.0909H79.005C78.9482 14.4773 78.8075 14.8253 78.5831 15.1349C78.3615 15.4418 78.0675 15.6861 77.701 15.8679C77.3374 16.0469 76.9141 16.1364 76.4311 16.1364ZM83.1342 16.1364C82.5206 16.1364 81.9922 15.9915 81.549 15.7017C81.1058 15.4119 80.7649 15.0128 80.5263 14.5043C80.2876 13.9957 80.1683 13.4148 80.1683 12.7614C80.1683 12.0966 80.2905 11.5099 80.5348 11.0014C80.782 10.4901 81.1257 10.0909 81.5661 9.80398C82.0092 9.5142 82.5263 9.36932 83.1172 9.36932C83.5774 9.36932 83.9922 9.45455 84.3615 9.625C84.7308 9.79545 85.0334 10.0341 85.2692 10.3409C85.505 10.6477 85.6513 11.0057 85.7081 11.4148H84.7024C84.6257 11.1165 84.4553 10.8523 84.1911 10.6222C83.9297 10.3892 83.5774 10.2727 83.1342 10.2727C82.7422 10.2727 82.3984 10.375 82.103 10.5795C81.8104 10.7812 81.5817 11.0668 81.4169 11.4361C81.255 11.8026 81.174 12.233 81.174 12.7273C81.174 13.233 81.2536 13.6733 81.4126 14.0483C81.5746 14.4233 81.8018 14.7145 82.0945 14.9219C82.3899 15.1293 82.7365 15.233 83.1342 15.233C83.3956 15.233 83.6328 15.1875 83.8459 15.0966C84.0589 15.0057 84.2393 14.875 84.3871 14.7045C84.5348 14.5341 84.6399 14.3295 84.7024 14.0909H85.7081C85.6513 14.4773 85.5107 14.8253 85.2862 15.1349C85.0646 15.4418 84.7706 15.6861 84.4041 15.8679C84.0405 16.0469 83.6172 16.1364 83.1342 16.1364ZM91.3033 13.3239V9.45455H92.3089V16H91.3033V14.892H91.2351C91.0817 15.2244 90.843 15.5071 90.5192 15.7401C90.1953 15.9702 89.7862 16.0852 89.2919 16.0852C88.8828 16.0852 88.5192 15.9957 88.201 15.8168C87.8828 15.6349 87.6328 15.3622 87.451 14.9986C87.2692 14.6321 87.1783 14.1705 87.1783 13.6136V9.45455H88.1839V13.5455C88.1839 14.0227 88.3175 14.4034 88.5845 14.6875C88.8544 14.9716 89.1982 15.1136 89.6158 15.1136C89.8658 15.1136 90.12 15.0497 90.3786 14.9219C90.6399 14.794 90.8587 14.598 91.0348 14.3338C91.2138 14.0696 91.3033 13.733 91.3033 13.3239ZM94.1509 16V9.45455H95.1225V10.4432H95.1907C95.31 10.1193 95.5259 9.85653 95.8384 9.65483C96.1509 9.45312 96.5032 9.35227 96.8952 9.35227C96.9691 9.35227 97.0614 9.35369 97.1722 9.35653C97.283 9.35937 97.3668 9.36364 97.4237 9.36932V10.392C97.3896 10.3835 97.3114 10.3707 97.1893 10.3537C97.07 10.3338 96.9435 10.3239 96.81 10.3239C96.4918 10.3239 96.2077 10.3906 95.9577 10.5241C95.7106 10.6548 95.5146 10.8366 95.3697 11.0696C95.2276 11.2997 95.1566 11.5625 95.1566 11.858V16H94.1509ZM100.542 16.1534C100.127 16.1534 99.7507 16.0753 99.4126 15.919C99.0746 15.7599 98.8061 15.5312 98.6072 15.233C98.4084 14.9318 98.3089 14.5682 98.3089 14.142C98.3089 13.767 98.3828 13.4631 98.5305 13.2301C98.6783 12.9943 98.8757 12.8097 99.1229 12.6761C99.37 12.5426 99.6428 12.4432 99.9411 12.3778C100.242 12.3097 100.545 12.2557 100.849 12.2159C101.246 12.1648 101.569 12.1264 101.816 12.1009C102.066 12.0724 102.248 12.0256 102.362 11.9602C102.478 11.8949 102.536 11.7812 102.536 11.6193V11.5852C102.536 11.1648 102.421 10.8381 102.191 10.6051C101.964 10.3722 101.619 10.2557 101.156 10.2557C100.675 10.2557 100.299 10.3608 100.026 10.571C99.7536 10.7812 99.5618 11.0057 99.451 11.2443L98.4964 10.9034C98.6669 10.5057 98.8942 10.196 99.1783 9.97443C99.4652 9.75 99.7777 9.59375 100.116 9.50568C100.457 9.41477 100.792 9.36932 101.121 9.36932C101.332 9.36932 101.573 9.39489 101.846 9.44602C102.121 9.49432 102.387 9.59517 102.643 9.74858C102.901 9.90199 103.116 10.1335 103.286 10.4432C103.457 10.7528 103.542 11.1676 103.542 11.6875V16H102.536V15.1136H102.485C102.417 15.2557 102.303 15.4077 102.144 15.5696C101.985 15.7315 101.773 15.8693 101.509 15.983C101.245 16.0966 100.923 16.1534 100.542 16.1534ZM100.695 15.25C101.093 15.25 101.428 15.1719 101.701 15.0156C101.977 14.8594 102.184 14.6577 102.323 14.4105C102.465 14.1634 102.536 13.9034 102.536 13.6307V12.7102C102.494 12.7614 102.4 12.8082 102.255 12.8509C102.113 12.8906 101.948 12.9261 101.761 12.9574C101.576 12.9858 101.396 13.0114 101.219 13.0341C101.046 13.054 100.906 13.071 100.798 13.0852C100.536 13.1193 100.292 13.1747 100.065 13.2514C99.8402 13.3253 99.6584 13.4375 99.5192 13.5881C99.3828 13.7358 99.3146 13.9375 99.3146 14.1932C99.3146 14.5426 99.4439 14.8068 99.7024 14.9858C99.9638 15.1619 100.295 15.25 100.695 15.25ZM108.224 9.45455V10.3068H104.832V9.45455H108.224ZM105.821 7.88636H106.826V14.125C106.826 14.4091 106.868 14.6222 106.95 14.7642C107.035 14.9034 107.143 14.9972 107.274 15.0455C107.407 15.0909 107.548 15.1136 107.696 15.1136C107.806 15.1136 107.897 15.108 107.968 15.0966C108.039 15.0824 108.096 15.071 108.139 15.0625L108.343 15.9659C108.275 15.9915 108.18 16.017 108.058 16.0426C107.936 16.071 107.781 16.0852 107.593 16.0852C107.309 16.0852 107.031 16.0241 106.758 15.902C106.488 15.7798 106.264 15.5938 106.085 15.3438C105.909 15.0938 105.821 14.7784 105.821 14.3977V7.88636ZM112.411 16.1364C111.78 16.1364 111.236 15.9972 110.779 15.7188C110.324 15.4375 109.973 15.0455 109.726 14.5426C109.482 14.0369 109.36 13.4489 109.36 12.7784C109.36 12.108 109.482 11.517 109.726 11.0057C109.973 10.4915 110.317 10.0909 110.757 9.80398C111.201 9.5142 111.718 9.36932 112.309 9.36932C112.65 9.36932 112.986 9.42614 113.319 9.53977C113.651 9.65341 113.953 9.83807 114.226 10.0938C114.499 10.3466 114.716 10.6818 114.878 11.0994C115.04 11.517 115.121 12.0312 115.121 12.642V13.0682H110.076V12.1989H114.098C114.098 11.8295 114.025 11.5 113.877 11.2102C113.732 10.9205 113.525 10.6918 113.255 10.5241C112.988 10.3565 112.672 10.2727 112.309 10.2727C111.908 10.2727 111.561 10.3722 111.269 10.571C110.979 10.767 110.756 11.0227 110.6 11.3381C110.444 11.6534 110.365 11.9915 110.365 12.3523V12.9318C110.365 13.4261 110.451 13.8452 110.621 14.1889C110.794 14.5298 111.034 14.7898 111.341 14.9688C111.648 15.1449 112.005 15.233 112.411 15.233C112.675 15.233 112.914 15.196 113.127 15.1222C113.343 15.0455 113.529 14.9318 113.685 14.7812C113.841 14.6278 113.962 14.4375 114.047 14.2102L115.019 14.483C114.917 14.8125 114.745 15.1023 114.503 15.3523C114.262 15.5994 113.963 15.7926 113.608 15.9318C113.253 16.0682 112.854 16.1364 112.411 16.1364Z" fill="#2E7D32"/>
</svg>
