<svg width="84" height="21" viewBox="0 0 84 21" fill="none" xmlns="http://www.w3.org/2000/svg">
<path d="M21.875 18.375L17.3958 14.6125M11.4583 6.125V9.625M11.4583 13.125H11.4687M19.7917 9.625C19.7917 13.491 16.0607 16.625 11.4583 16.625C6.85596 16.625 3.125 13.491 3.125 9.625C3.125 5.75901 6.85596 2.625 11.4583 2.625C16.0607 2.625 19.7917 5.75901 19.7917 9.625Z" stroke="#F57C00" stroke-width="2" stroke-linecap="round" stroke-linejoin="round"/>
<path d="M31.7841 9.27273H32.8409V15.0511C32.8409 15.6477 32.7003 16.1804 32.419 16.6491C32.1406 17.1151 31.7472 17.483 31.2386 17.7528C30.7301 18.0199 30.1335 18.1534 29.4489 18.1534C28.7642 18.1534 28.1676 18.0199 27.6591 17.7528C27.1506 17.483 26.7557 17.1151 26.4744 16.6491C26.196 16.1804 26.0568 15.6477 26.0568 15.0511V9.27273H27.1136V14.9659C27.1136 15.392 27.2074 15.7713 27.3949 16.1037C27.5824 16.4332 27.8494 16.6932 28.196 16.8835C28.5455 17.071 28.9631 17.1648 29.4489 17.1648C29.9347 17.1648 30.3523 17.071 30.7017 16.8835C31.0511 16.6932 31.3182 16.4332 31.5028 16.1037C31.6903 15.7713 31.7841 15.392 31.7841 14.9659V9.27273ZM35.8207 14.0625V18H34.815V11.4545H35.7866V12.4773H35.8718C36.0252 12.1449 36.2582 11.8778 36.5707 11.6761C36.8832 11.4716 37.2866 11.3693 37.7809 11.3693C38.2241 11.3693 38.6119 11.4602 38.9442 11.642C39.2766 11.821 39.5352 12.0938 39.7198 12.4602C39.9045 12.8239 39.9968 13.2841 39.9968 13.8409V18H38.9911V13.9091C38.9911 13.3949 38.8576 12.9943 38.5906 12.7074C38.3235 12.4176 37.957 12.2727 37.4911 12.2727C37.1701 12.2727 36.8832 12.3423 36.6303 12.4815C36.3803 12.6207 36.1829 12.8239 36.038 13.0909C35.8931 13.358 35.8207 13.6818 35.8207 14.0625ZM46.9524 11.4545L44.532 18H43.5092L41.0888 11.4545H42.1797L43.9865 16.6705H44.0547L45.8615 11.4545H46.9524ZM50.7898 18.1364C50.1591 18.1364 49.6151 17.9972 49.1577 17.7188C48.7031 17.4375 48.3523 17.0455 48.1051 16.5426C47.8608 16.0369 47.7386 15.4489 47.7386 14.7784C47.7386 14.108 47.8608 13.517 48.1051 13.0057C48.3523 12.4915 48.696 12.0909 49.1364 11.804C49.5795 11.5142 50.0966 11.3693 50.6875 11.3693C51.0284 11.3693 51.3651 11.4261 51.6974 11.5398C52.0298 11.6534 52.3324 11.8381 52.6051 12.0938C52.8778 12.3466 53.0952 12.6818 53.2571 13.0994C53.419 13.517 53.5 14.0312 53.5 14.642V15.0682H48.4545V14.1989H52.4773C52.4773 13.8295 52.4034 13.5 52.2557 13.2102C52.1108 12.9205 51.9034 12.6918 51.6335 12.5241C51.3665 12.3565 51.0511 12.2727 50.6875 12.2727C50.2869 12.2727 49.9403 12.3722 49.6477 12.571C49.358 12.767 49.1349 13.0227 48.9787 13.3381C48.8224 13.6534 48.7443 13.9915 48.7443 14.3523V14.9318C48.7443 15.4261 48.8295 15.8452 49 16.1889C49.1733 16.5298 49.4134 16.7898 49.7202 16.9688C50.027 17.1449 50.3835 17.233 50.7898 17.233C51.054 17.233 51.2926 17.196 51.5057 17.1222C51.7216 17.0455 51.9077 16.9318 52.0639 16.7812C52.2202 16.6278 52.3409 16.4375 52.4261 16.2102L53.3977 16.483C53.2955 16.8125 53.1236 17.1023 52.8821 17.3523C52.6406 17.5994 52.3423 17.7926 51.9872 17.9318C51.6321 18.0682 51.233 18.1364 50.7898 18.1364ZM55.0298 18V11.4545H56.0014V12.4432H56.0696C56.1889 12.1193 56.4048 11.8565 56.7173 11.6548C57.0298 11.4531 57.3821 11.3523 57.7741 11.3523C57.848 11.3523 57.9403 11.3537 58.0511 11.3565C58.1619 11.3594 58.2457 11.3636 58.3026 11.3693V12.392C58.2685 12.3835 58.1903 12.3707 58.0682 12.3537C57.9489 12.3338 57.8224 12.3239 57.6889 12.3239C57.3707 12.3239 57.0866 12.3906 56.8366 12.5241C56.5895 12.6548 56.3935 12.8366 56.2486 13.0696C56.1065 13.2997 56.0355 13.5625 56.0355 13.858V18H55.0298ZM59.4947 18V11.4545H60.5004V18H59.4947ZM60.006 10.3636C59.81 10.3636 59.641 10.2969 59.4989 10.1634C59.3597 10.0298 59.2901 9.86932 59.2901 9.68182C59.2901 9.49432 59.3597 9.33381 59.4989 9.20028C59.641 9.06676 59.81 9 60.006 9C60.2021 9 60.3697 9.06676 60.5089 9.20028C60.6509 9.33381 60.7219 9.49432 60.7219 9.68182C60.7219 9.86932 60.6509 10.0298 60.5089 10.1634C60.3697 10.2969 60.2021 10.3636 60.006 10.3636ZM65.2571 11.4545V12.3068H61.7287V11.4545H65.2571ZM62.7855 18V10.5511C62.7855 10.1761 62.8736 9.86364 63.0497 9.61364C63.2259 9.36364 63.4545 9.17614 63.7358 9.05114C64.017 8.92614 64.3139 8.86364 64.6264 8.86364C64.8736 8.86364 65.0753 8.88352 65.2315 8.9233C65.3878 8.96307 65.5043 9 65.581 9.03409L65.2912 9.90341C65.2401 9.88636 65.169 9.86506 65.0781 9.83949C64.9901 9.81392 64.8736 9.80114 64.7287 9.80114C64.3963 9.80114 64.1563 9.88494 64.0085 10.0526C63.8636 10.2202 63.7912 10.4659 63.7912 10.7898V18H62.7855ZM66.6665 18V11.4545H67.6722V18H66.6665ZM67.1779 10.3636C66.9819 10.3636 66.8129 10.2969 66.6708 10.1634C66.5316 10.0298 66.462 9.86932 66.462 9.68182C66.462 9.49432 66.5316 9.33381 66.6708 9.20028C66.8129 9.06676 66.9819 9 67.1779 9C67.3739 9 67.5415 9.06676 67.6808 9.20028C67.8228 9.33381 67.8938 9.49432 67.8938 9.68182C67.8938 9.86932 67.8228 10.0298 67.6808 10.1634C67.5415 10.2969 67.3739 10.3636 67.1779 10.3636ZM72.2585 18.1364C71.6278 18.1364 71.0838 17.9972 70.6264 17.7188C70.1719 17.4375 69.821 17.0455 69.5739 16.5426C69.3295 16.0369 69.2074 15.4489 69.2074 14.7784C69.2074 14.108 69.3295 13.517 69.5739 13.0057C69.821 12.4915 70.1648 12.0909 70.6051 11.804C71.0483 11.5142 71.5653 11.3693 72.1562 11.3693C72.4972 11.3693 72.8338 11.4261 73.1662 11.5398C73.4986 11.6534 73.8011 11.8381 74.0739 12.0938C74.3466 12.3466 74.5639 12.6818 74.7259 13.0994C74.8878 13.517 74.9688 14.0312 74.9688 14.642V15.0682H69.9233V14.1989H73.946C73.946 13.8295 73.8722 13.5 73.7244 13.2102C73.5795 12.9205 73.3722 12.6918 73.1023 12.5241C72.8352 12.3565 72.5199 12.2727 72.1562 12.2727C71.7557 12.2727 71.4091 12.3722 71.1165 12.571C70.8267 12.767 70.6037 13.0227 70.4474 13.3381C70.2912 13.6534 70.2131 13.9915 70.2131 14.3523V14.9318C70.2131 15.4261 70.2983 15.8452 70.4688 16.1889C70.642 16.5298 70.8821 16.7898 71.1889 16.9688C71.4957 17.1449 71.8523 17.233 72.2585 17.233C72.5227 17.233 72.7614 17.196 72.9744 17.1222C73.1903 17.0455 73.3764 16.9318 73.5327 16.7812C73.6889 16.6278 73.8097 16.4375 73.8949 16.2102L74.8665 16.483C74.7642 16.8125 74.5923 17.1023 74.3509 17.3523C74.1094 17.5994 73.8111 17.7926 73.456 17.9318C73.1009 18.0682 72.7017 18.1364 72.2585 18.1364ZM78.9702 18.1364C78.4247 18.1364 77.9432 17.9986 77.5256 17.723C77.108 17.4446 76.7813 17.0526 76.5455 16.5469C76.3097 16.0384 76.1918 15.4375 76.1918 14.7443C76.1918 14.0568 76.3097 13.4602 76.5455 12.9545C76.7813 12.4489 77.1094 12.0582 77.5298 11.7827C77.9503 11.5071 78.4361 11.3693 78.9872 11.3693C79.4134 11.3693 79.75 11.4403 79.9972 11.5824C80.2472 11.7216 80.4375 11.8807 80.5682 12.0597C80.7017 12.2358 80.8054 12.3807 80.8793 12.4943H80.9645V9.27273H81.9702V18H80.9986V16.9943H80.8793C80.8054 17.1136 80.7003 17.2642 80.5639 17.446C80.4276 17.625 80.233 17.7855 79.9801 17.9276C79.7273 18.0668 79.3906 18.1364 78.9702 18.1364ZM79.1065 17.233C79.5099 17.233 79.8509 17.1278 80.1293 16.9176C80.4077 16.7045 80.6193 16.4105 80.7642 16.0355C80.9091 15.6577 80.9815 15.2216 80.9815 14.7273C80.9815 14.2386 80.9105 13.8111 80.7685 13.4446C80.6264 13.0753 80.4162 12.7884 80.1378 12.5838C79.8594 12.3764 79.5156 12.2727 79.1065 12.2727C78.6804 12.2727 78.3253 12.3821 78.0412 12.6009C77.7599 12.8168 77.5483 13.1108 77.4062 13.483C77.267 13.8523 77.1974 14.267 77.1974 14.7273C77.1974 15.1932 77.2685 15.6165 77.4105 15.9972C77.5554 16.375 77.7685 16.6761 78.0497 16.9006C78.3338 17.1222 78.6861 17.233 79.1065 17.233Z" fill="#F57C00"/>
</svg>
