<svg width="88" height="24" viewBox="0 0 88 24" fill="none" xmlns="http://www.w3.org/2000/svg">
<path d="M0.623956 7.21805C0.623956 7.21805 -0.428847 8.45113 0.950688 10.0451C0.950688 10.0451 1.16851 9.23308 3.34672 9.23308H5.96058C8.42922 9.23308 10.2807 7.2782 9.11899 5.26316C9.11899 5.26316 10.8616 5.41353 11.4424 4.51128C12.0233 3.60902 11.4061 3.24812 10.5348 3.24812H6.1421C6.1421 3.89474 4.65365 3.98496 4.65365 3.24812H2.18501C2.18501 3.24812 0.333528 3.24812 0.297224 4.54135C0.297224 4.54135 0.714715 4.33083 1.13221 4.30075V4.64662C1.13221 4.64662 0.623956 4.7218 0.387983 4.82707C0.15201 4.93233 -0.192874 5.21805 0.133858 5.95489C0.46059 6.69173 0.587653 6.94737 0.587653 6.94737C0.587653 6.94737 1.11405 6.57143 1.96719 6.57143H2.96554C4.74441 6.57143 4.41768 8 2.6388 8C0.85993 8 0.623956 7.21805 0.623956 7.21805Z" fill="#F57C00"/>
<path d="M9.89952 5.72932C9.89952 5.72932 10.4985 5.7594 10.9342 5.44361C10.9342 5.44361 14.8731 7.98496 9.02823 13.0977C3.18336 18.2105 7.70315 21.5188 7.70315 21.5188C7.70315 21.5188 6.65035 22.3609 7.24936 24C7.24936 24 4.81847 22.862 2.95973 20.9323C0.271813 18.142 -1.36983 13.8713 6.00923 10.4662C6.00923 10.4662 10.8797 8.43609 9.89952 5.72932Z" fill="#F57C00"/>
<path d="M3.87966 2.76692C3.87966 2.76692 4.666 1.60421 6.49352 1.60421C7.93332 1.60421 8.26005 0.992481 8.26005 0.992481C8.26005 0.992481 8.88955 0 12.0596 0C14.9653 0 16.9243 0.801805 18.51 1.87489C18.51 1.87489 14.2385 -0.320602 10.0273 2.76692H3.87966Z" fill="#F57C00"/>
<path d="M21.6437 10.1251C21.5225 6.49624 18.1346 2.60632 10.8492 2.82707C17.9647 -2.16541 30.3079 8.98226 20.1429 14.8373C20.1429 14.8373 21.8426 12.8289 21.6437 10.1257V10.1251Z" fill="#F57C00"/>
<path d="M11.9391 3.22827C20.8211 3.00752 23.9918 11.8298 18.2559 15.7997L12.496 18.1053C12.496 18.1053 11.7459 16.1005 14.529 13.7546C17.312 11.4087 19.9984 7.01775 12.3021 4.13053C12.3021 4.13053 12.4473 3.52902 11.9391 3.22827Z" fill="#F57C00"/>
<path d="M11.4787 5.21323C11.4787 5.21323 11.9144 4.87218 12.0596 4.59188C18.6668 6.87759 17.6264 10.7471 13.6809 13.9952C11.2609 16.0601 12.0109 18.2857 12.0109 18.2857C12.0109 18.2857 9.05799 19.8093 8.04149 21.1326C8.04149 21.1326 3.76856 18.1179 9.6875 13.1128C15.4961 8.2003 11.4787 5.21323 11.4787 5.21323Z" fill="#F57C00"/>
<path d="M35.7841 8.27273H36.8409V14.0511C36.8409 14.6477 36.7003 15.1804 36.419 15.6491C36.1406 16.1151 35.7472 16.483 35.2386 16.7528C34.7301 17.0199 34.1335 17.1534 33.4489 17.1534C32.7642 17.1534 32.1676 17.0199 31.6591 16.7528C31.1506 16.483 30.7557 16.1151 30.4744 15.6491C30.196 15.1804 30.0568 14.6477 30.0568 14.0511V8.27273H31.1136V13.9659C31.1136 14.392 31.2074 14.7713 31.3949 15.1037C31.5824 15.4332 31.8494 15.6932 32.196 15.8835C32.5455 16.071 32.9631 16.1648 33.4489 16.1648C33.9347 16.1648 34.3523 16.071 34.7017 15.8835C35.0511 15.6932 35.3182 15.4332 35.5028 15.1037C35.6903 14.7713 35.7841 14.392 35.7841 13.9659V8.27273ZM39.8207 13.0625V17H38.815V10.4545H39.7866V11.4773H39.8718C40.0252 11.1449 40.2582 10.8778 40.5707 10.6761C40.8832 10.4716 41.2866 10.3693 41.7809 10.3693C42.2241 10.3693 42.6119 10.4602 42.9442 10.642C43.2766 10.821 43.5352 11.0938 43.7198 11.4602C43.9045 11.8239 43.9968 12.2841 43.9968 12.8409V17H42.9911V12.9091C42.9911 12.3949 42.8576 11.9943 42.5906 11.7074C42.3235 11.4176 41.957 11.2727 41.4911 11.2727C41.1701 11.2727 40.8832 11.3423 40.6303 11.4815C40.3803 11.6207 40.1829 11.8239 40.038 12.0909C39.8931 12.358 39.8207 12.6818 39.8207 13.0625ZM50.9524 10.4545L48.532 17H47.5092L45.0888 10.4545H46.1797L47.9865 15.6705H48.0547L49.8615 10.4545H50.9524ZM54.7898 17.1364C54.1591 17.1364 53.6151 16.9972 53.1577 16.7188C52.7031 16.4375 52.3523 16.0455 52.1051 15.5426C51.8608 15.0369 51.7386 14.4489 51.7386 13.7784C51.7386 13.108 51.8608 12.517 52.1051 12.0057C52.3523 11.4915 52.696 11.0909 53.1364 10.804C53.5795 10.5142 54.0966 10.3693 54.6875 10.3693C55.0284 10.3693 55.3651 10.4261 55.6974 10.5398C56.0298 10.6534 56.3324 10.8381 56.6051 11.0938C56.8778 11.3466 57.0952 11.6818 57.2571 12.0994C57.419 12.517 57.5 13.0312 57.5 13.642V14.0682H52.4545V13.1989H56.4773C56.4773 12.8295 56.4034 12.5 56.2557 12.2102C56.1108 11.9205 55.9034 11.6918 55.6335 11.5241C55.3665 11.3565 55.0511 11.2727 54.6875 11.2727C54.2869 11.2727 53.9403 11.3722 53.6477 11.571C53.358 11.767 53.1349 12.0227 52.9787 12.3381C52.8224 12.6534 52.7443 12.9915 52.7443 13.3523V13.9318C52.7443 14.4261 52.8295 14.8452 53 15.1889C53.1733 15.5298 53.4134 15.7898 53.7202 15.9688C54.027 16.1449 54.3835 16.233 54.7898 16.233C55.054 16.233 55.2926 16.196 55.5057 16.1222C55.7216 16.0455 55.9077 15.9318 56.0639 15.7812C56.2202 15.6278 56.3409 15.4375 56.4261 15.2102L57.3977 15.483C57.2955 15.8125 57.1236 16.1023 56.8821 16.3523C56.6406 16.5994 56.3423 16.7926 55.9872 16.9318C55.6321 17.0682 55.233 17.1364 54.7898 17.1364ZM59.0298 17V10.4545H60.0014V11.4432H60.0696C60.1889 11.1193 60.4048 10.8565 60.7173 10.6548C61.0298 10.4531 61.3821 10.3523 61.7741 10.3523C61.848 10.3523 61.9403 10.3537 62.0511 10.3565C62.1619 10.3594 62.2457 10.3636 62.3026 10.3693V11.392C62.2685 11.3835 62.1903 11.3707 62.0682 11.3537C61.9489 11.3338 61.8224 11.3239 61.6889 11.3239C61.3707 11.3239 61.0866 11.3906 60.8366 11.5241C60.5895 11.6548 60.3935 11.8366 60.2486 12.0696C60.1065 12.2997 60.0355 12.5625 60.0355 12.858V17H59.0298ZM63.4947 17V10.4545H64.5004V17H63.4947ZM64.006 9.36364C63.81 9.36364 63.641 9.29688 63.4989 9.16335C63.3597 9.02983 63.2901 8.86932 63.2901 8.68182C63.2901 8.49432 63.3597 8.33381 63.4989 8.20028C63.641 8.06676 63.81 8 64.006 8C64.2021 8 64.3697 8.06676 64.5089 8.20028C64.6509 8.33381 64.7219 8.49432 64.7219 8.68182C64.7219 8.86932 64.6509 9.02983 64.5089 9.16335C64.3697 9.29688 64.2021 9.36364 64.006 9.36364ZM69.2571 10.4545V11.3068H65.7287V10.4545H69.2571ZM66.7855 17V9.55114C66.7855 9.17614 66.8736 8.86364 67.0497 8.61364C67.2259 8.36364 67.4545 8.17614 67.7358 8.05114C68.017 7.92614 68.3139 7.86364 68.6264 7.86364C68.8736 7.86364 69.0753 7.88352 69.2315 7.9233C69.3878 7.96307 69.5043 8 69.581 8.03409L69.2912 8.90341C69.2401 8.88636 69.169 8.86506 69.0781 8.83949C68.9901 8.81392 68.8736 8.80114 68.7287 8.80114C68.3963 8.80114 68.1563 8.88494 68.0085 9.05256C67.8636 9.22017 67.7912 9.46591 67.7912 9.78977V17H66.7855ZM70.6665 17V10.4545H71.6722V17H70.6665ZM71.1779 9.36364C70.9819 9.36364 70.8129 9.29688 70.6708 9.16335C70.5316 9.02983 70.462 8.86932 70.462 8.68182C70.462 8.49432 70.5316 8.33381 70.6708 8.20028C70.8129 8.06676 70.9819 8 71.1779 8C71.3739 8 71.5415 8.06676 71.6808 8.20028C71.8228 8.33381 71.8938 8.49432 71.8938 8.68182C71.8938 8.86932 71.8228 9.02983 71.6808 9.16335C71.5415 9.29688 71.3739 9.36364 71.1779 9.36364ZM76.2585 17.1364C75.6278 17.1364 75.0838 16.9972 74.6264 16.7188C74.1719 16.4375 73.821 16.0455 73.5739 15.5426C73.3295 15.0369 73.2074 14.4489 73.2074 13.7784C73.2074 13.108 73.3295 12.517 73.5739 12.0057C73.821 11.4915 74.1648 11.0909 74.6051 10.804C75.0483 10.5142 75.5653 10.3693 76.1562 10.3693C76.4972 10.3693 76.8338 10.4261 77.1662 10.5398C77.4986 10.6534 77.8011 10.8381 78.0739 11.0938C78.3466 11.3466 78.5639 11.6818 78.7259 12.0994C78.8878 12.517 78.9688 13.0312 78.9688 13.642V14.0682H73.9233V13.1989H77.946C77.946 12.8295 77.8722 12.5 77.7244 12.2102C77.5795 11.9205 77.3722 11.6918 77.1023 11.5241C76.8352 11.3565 76.5199 11.2727 76.1562 11.2727C75.7557 11.2727 75.4091 11.3722 75.1165 11.571C74.8267 11.767 74.6037 12.0227 74.4474 12.3381C74.2912 12.6534 74.2131 12.9915 74.2131 13.3523V13.9318C74.2131 14.4261 74.2983 14.8452 74.4688 15.1889C74.642 15.5298 74.8821 15.7898 75.1889 15.9688C75.4957 16.1449 75.8523 16.233 76.2585 16.233C76.5227 16.233 76.7614 16.196 76.9744 16.1222C77.1903 16.0455 77.3764 15.9318 77.5327 15.7812C77.6889 15.6278 77.8097 15.4375 77.8949 15.2102L78.8665 15.483C78.7642 15.8125 78.5923 16.1023 78.3509 16.3523C78.1094 16.5994 77.8111 16.7926 77.456 16.9318C77.1009 17.0682 76.7017 17.1364 76.2585 17.1364ZM82.9702 17.1364C82.4247 17.1364 81.9432 16.9986 81.5256 16.723C81.108 16.4446 80.7813 16.0526 80.5455 15.5469C80.3097 15.0384 80.1918 14.4375 80.1918 13.7443C80.1918 13.0568 80.3097 12.4602 80.5455 11.9545C80.7813 11.4489 81.1094 11.0582 81.5298 10.7827C81.9503 10.5071 82.4361 10.3693 82.9872 10.3693C83.4134 10.3693 83.75 10.4403 83.9972 10.5824C84.2472 10.7216 84.4375 10.8807 84.5682 11.0597C84.7017 11.2358 84.8054 11.3807 84.8793 11.4943H84.9645V8.27273H85.9702V17H84.9986V15.9943H84.8793C84.8054 16.1136 84.7003 16.2642 84.5639 16.446C84.4276 16.625 84.233 16.7855 83.9801 16.9276C83.7273 17.0668 83.3906 17.1364 82.9702 17.1364ZM83.1065 16.233C83.5099 16.233 83.8509 16.1278 84.1293 15.9176C84.4077 15.7045 84.6193 15.4105 84.7642 15.0355C84.9091 14.6577 84.9815 14.2216 84.9815 13.7273C84.9815 13.2386 84.9105 12.8111 84.7685 12.4446C84.6264 12.0753 84.4162 11.7884 84.1378 11.5838C83.8594 11.3764 83.5156 11.2727 83.1065 11.2727C82.6804 11.2727 82.3253 11.3821 82.0412 11.6009C81.7599 11.8168 81.5483 12.1108 81.4062 12.483C81.267 12.8523 81.1974 13.267 81.1974 13.7273C81.1974 14.1932 81.2685 14.6165 81.4105 14.9972C81.5554 15.375 81.7685 15.6761 82.0497 15.9006C82.3338 16.1222 82.6861 16.233 83.1065 16.233Z" fill="#F57C00"/>
</svg>
